HIERARCHY
ROOT Hips
{
    OFFSET   0.000000   0.000000   0.000000
    CHANNELS 6 Xposition Yposition Zposition Zrotation Xrotation Yrotation
    JOINT Chest
    {
        OFFSET   0.000000   8.007230   0.000000
        CHANNELS 3 Zrotation Xrotation Yrotation
        JOINT Chest2
        {
            OFFSET   0.000000  22.077100   0.000000
            CHANNELS 3 Zrotation Xrotation Yrotation
            JOINT Neck
            {
                OFFSET   0.000000  23.254700   0.000000
                CHANNELS 3 Zrotation Xrotation Yrotation
                JOINT Head
                {
                    OFFSET   0.000010  14.370000   1.956610
                    CHANNELS 3 Zrotation Xrotation Yrotation
                    End Site
                    {
                        OFFSET   0.000000  19.566000   0.000000
                    }
                }
            }
            JOINT LeftCollar
            {
                OFFSET   3.911900  19.017000  -0.467063
                CHANNELS 3 Zrotation Xrotation Yrotation
                JOINT LeftShoulder
                {
                    OFFSET  10.383700   0.000000   0.000000
                    CHANNELS 3 Zrotation Xrotation Yrotation
                    JOINT LeftElbow
                    {
                        OFFSET  26.662100   0.001671   0.000522
                        CHANNELS 3 Zrotation Xrotation Yrotation
                        JOINT LeftWrist
                        {
                            OFFSET  28.869000   0.000037  -0.000114
                            CHANNELS 3 Zrotation Xrotation Yrotation
                            JOINT LeftFinger0
                            {
                                OFFSET   2.044650  -2.323450   3.252850
                                CHANNELS 3 Zrotation Xrotation Yrotation
                                JOINT LeftFinger01
                                {
                                    OFFSET   3.088140   0.000000   0.000000
                                    CHANNELS 3 Zrotation Xrotation Yrotation
                                    JOINT LeftFinger02
                                    {
                                        OFFSET   2.639460   0.000000   0.000000
                                        CHANNELS 3 Zrotation Xrotation Yrotation
                                        End Site
                                        {
                                            OFFSET   2.582190   0.000000   0.000000
                                        }
                                    }
                                }
                            }
                            JOINT LeftFinger1
                            {
                                OFFSET   8.364480   0.000000   3.252850
                                CHANNELS 3 Zrotation Xrotation Yrotation
                                JOINT LeftFinger11
                                {
                                    OFFSET   4.646930   0.000000   0.000000
                                    CHANNELS 3 Zrotation Xrotation Yrotation
                                    JOINT LeftFinger12
                                    {
                                        OFFSET   2.323470   0.000000   0.000000
                                        CHANNELS 3 Zrotation Xrotation Yrotation
                                        End Site
                                        {
                                            OFFSET   2.273050   0.000000   0.000000
                                        }
                                    }
                                }
                            }
                            JOINT LeftFinger2
                            {
                                OFFSET   8.364490   0.000016   1.078090
                                CHANNELS 3 Zrotation Xrotation Yrotation
                                JOINT LeftFinger21
                                {
                                    OFFSET   5.111620   0.000000   0.000000
                                    CHANNELS 3 Zrotation Xrotation Yrotation
                                    JOINT LeftFinger22
                                    {
                                        OFFSET   2.788150   0.000013   0.000000
                                        CHANNELS 3 Zrotation Xrotation Yrotation
                                        End Site
                                        {
                                            OFFSET   2.727660   0.000000   0.000000
                                        }
                                    }
                                }
                            }
                            JOINT LeftFinger3
                            {
                                OFFSET   7.899780   0.000016  -1.078090
                                CHANNELS 3 Zrotation Xrotation Yrotation
                                JOINT LeftFinger31
                                {
                                    OFFSET   4.646930   0.000000   0.000000
                                    CHANNELS 3 Zrotation Xrotation Yrotation
                                    JOINT LeftFinger32
                                    {
                                        OFFSET   2.323470   0.000000   0.000000
                                        CHANNELS 3 Zrotation Xrotation Yrotation
                                        End Site
                                        {
                                            OFFSET   2.273050   0.000000   0.000000
                                        }
                                    }
                                }
                            }
                            JOINT LeftFinger4
                            {
                                OFFSET   7.435080   0.000000  -3.252850
                                CHANNELS 3 Zrotation Xrotation Yrotation
                                JOINT LeftFinger41
                                {
                                    OFFSET   3.717550   0.000000   0.000000
                                    CHANNELS 3 Zrotation Xrotation Yrotation
                                    JOINT LeftFinger42
                                    {
                                        OFFSET   1.858760   0.000000   0.000000
                                        CHANNELS 3 Zrotation Xrotation Yrotation
                                        End Site
                                        {
                                            OFFSET   1.818440   0.000000   0.000000
                                        }
                                    }
                                }
                            }
                        }
                    }
                }
            }
            JOINT RightCollar
            {
                OFFSET  -3.911900  19.017000  -0.467064
                CHANNELS 3 Zrotation Xrotation Yrotation
                JOINT RightShoulder
                {
                    OFFSET -10.383700   0.000000   0.000000
                    CHANNELS 3 Zrotation Xrotation Yrotation
                    JOINT RightElbow
                    {
                        OFFSET -26.662100   0.001633   0.000260
                        CHANNELS 3 Zrotation Xrotation Yrotation
                        JOINT RightWrist
                        {
                            OFFSET -28.869000  -0.000045  -0.000080
                            CHANNELS 3 Zrotation Xrotation Yrotation
                            JOINT RightFinger0
                            {
                                OFFSET  -2.044660  -2.323490   3.252850
                                CHANNELS 3 Zrotation Xrotation Yrotation
                                JOINT RightFinger01
                                {
                                    OFFSET  -3.088140   0.000000   0.000000
                                    CHANNELS 3 Zrotation Xrotation Yrotation
                                    JOINT RightFinger02
                                    {
                                        OFFSET  -2.639450   0.000000   0.000000
                                        CHANNELS 3 Zrotation Xrotation Yrotation
                                        End Site
                                        {
                                            OFFSET  -2.582190   0.000000   0.000000
                                        }
                                    }
                                }
                            }
                            JOINT RightFinger1
                            {
                                OFFSET  -8.364480   0.000000   3.252850
                                CHANNELS 3 Zrotation Xrotation Yrotation
                                JOINT RightFinger11
                                {
                                    OFFSET  -4.646920   0.000000   0.000000
                                    CHANNELS 3 Zrotation Xrotation Yrotation
                                    JOINT RightFinger12
                                    {
                                        OFFSET  -2.323470   0.000000   0.000000
                                        CHANNELS 3 Zrotation Xrotation Yrotation
                                        End Site
                                        {
                                            OFFSET  -2.273050   0.000000   0.000000
                                        }
                                    }
                                }
                            }
                            JOINT RightFinger2
                            {
                                OFFSET  -8.364480   0.000000   1.078090
                                CHANNELS 3 Zrotation Xrotation Yrotation
                                JOINT RightFinger21
                                {
                                    OFFSET  -5.111610   0.000000   0.000000
                                    CHANNELS 3 Zrotation Xrotation Yrotation
                                    JOINT RightFinger22
                                    {
                                        OFFSET  -2.788160   0.000000   0.000000
                                        CHANNELS 3 Zrotation Xrotation Yrotation
                                        End Site
                                        {
                                            OFFSET  -2.727660   0.000000   0.000000
                                        }
                                    }
                                }
                            }
                            JOINT RightFinger3
                            {
                                OFFSET  -7.899780   0.000000  -1.078090
                                CHANNELS 3 Zrotation Xrotation Yrotation
                                JOINT RightFinger31
                                {
                                    OFFSET  -4.646930   0.000000   0.000000
                                    CHANNELS 3 Zrotation Xrotation Yrotation
                                    JOINT RightFinger32
                                    {
                                        OFFSET  -2.323470   0.000000   0.000000
                                        CHANNELS 3 Zrotation Xrotation Yrotation
                                        End Site
                                        {
                                            OFFSET  -2.273050   0.000000   0.000000
                                        }
                                    }
                                }
                            }
                            JOINT RightFinger4
                            {
                                OFFSET  -7.435090   0.000000  -3.252850
                                CHANNELS 3 Zrotation Xrotation Yrotation
                                JOINT RightFinger41
                                {
                                    OFFSET  -3.717550   0.000000   0.000000
                                    CHANNELS 3 Zrotation Xrotation Yrotation
                                    JOINT RightFinger42
                                    {
                                        OFFSET  -1.858760   0.000000   0.000000
                                        CHANNELS 3 Zrotation Xrotation Yrotation
                                        End Site
                                        {
                                            OFFSET  -1.818440   0.000000   0.000000
                                        }
                                    }
                                }
                            }
                        }
                    }
                }
            }
        }
    }
    JOINT LeftHip
    {
        OFFSET   9.782990   0.000000   0.000000
        CHANNELS 3 Zrotation Xrotation Yrotation
        JOINT LeftKnee
        {
            OFFSET  -0.000063 -41.789100   0.001657
            CHANNELS 3 Zrotation Xrotation Yrotation
            JOINT LeftAnkle
            {
                OFFSET   0.000078 -41.133200  -0.000113
                CHANNELS 3 Zrotation Xrotation Yrotation
                JOINT LeftToe
                {
                    OFFSET   0.000000  -6.358970  14.674500
                    CHANNELS 3 Zrotation Xrotation Yrotation
                    End Site
                    {
                        OFFSET   0.000000   0.000000   3.913200
                    }
                }
            }
        }
    }
    JOINT RightHip
    {
        OFFSET  -9.782990   0.000000   0.000000
        CHANNELS 3 Zrotation Xrotation Yrotation
        JOINT RightKnee
        {
            OFFSET   0.000053 -41.789200   0.000277
            CHANNELS 3 Zrotation Xrotation Yrotation
            JOINT RightAnkle
            {
                OFFSET   0.000030 -41.133200  -0.000150
                CHANNELS 3 Zrotation Xrotation Yrotation
                JOINT RightToe
                {
                    OFFSET   0.000000  -6.358960  14.674500
                    CHANNELS 3 Zrotation Xrotation Yrotation
                    End Site
                    {
                        OFFSET   0.000000   0.000000   3.913200
                    }
                }
            }
        }
    }
}
MOTION
Frames: 6
Frame Time:   0.016667
 -1.420360  89.961800   0.482950   0.210209 -11.716200   2.139520   0.076256   8.073600  -2.997240   0.592760  16.131900  -6.097660   3.320380   2.126990  -0.123341   5.475820   4.269560   6.655150  -3.022180   4.101780   3.135280 -25.132800   0.736113 -59.734300   9.345090 -20.511800 -117.545000 -16.708600  15.439400 -10.532100  45.732200  54.814800 -90.890000 -51.626500  -0.001368   0.001743 -26.918700  -0.001830   0.000853 -64.711600   0.599845  -0.284211 -52.941800  -0.003056  -0.023992 -39.706400  -0.000750  -0.017616 -89.000100   0.068143   0.007030 -95.856000  -0.002533   0.004835 -71.892100  -0.000607  -0.001697 -88.996400  -4.998410   0.086398 -89.226200   0.000348   0.007938 -66.919700   0.001379   0.000260 -88.985200  -9.998110   0.177379 -110.000000  -0.004395   0.000646 -80.000000  -0.003952   0.009125   3.085680   0.498560  11.086400   8.272780  -9.718200  42.220400  -8.721060 -22.103500 103.591000  71.751100 -38.166900  46.098400 -32.054600  33.785300  71.183300  42.671800  -0.000316  -0.000671  17.563300  -0.000657  -0.001794  51.029000  -2.037580  -1.658190  41.773600  -0.000709   0.003626  31.324000   0.000514  -0.006097  73.314200  -2.505730  -0.761977  73.329100   0.003600  -0.010698  54.996800  -0.001342   0.001650  89.000600  -5.001940  -0.093474 108.747000  -0.002238   0.001287  80.000000   0.003837   0.002090  88.984600  -9.994230  -0.176296 110.000000  -0.002731  -0.000538  80.000000  -0.003806   0.005534   0.998372  11.368300   3.330780  -0.324631   3.004950  14.586300  -5.078260  -4.048630   2.249530   0.000000   0.000000   0.000000   1.643330  11.408900  -6.574080  -0.097749   3.743320  -6.399030  -7.824520  -0.776432   3.256180  -0.000000   0.000000  -0.000000
 -1.422730  89.965000   0.487237   0.194861 -11.679200   2.028710   0.092897   8.000780  -3.024910   0.624149  15.985000  -6.154560   3.270130   2.144120  -0.123462   5.396260   4.304990   6.595310  -3.125570   4.353460   3.147330 -26.028800   0.403833 -59.172500   9.462210 -20.567500 -117.780000 -16.893800  16.165600 -10.591700  46.465900  55.098200 -91.787600 -51.287000  -0.001417   0.001626 -26.513100  -0.001894   0.000765 -62.604600   0.143765  -0.070309 -51.218200  -0.002899  -0.014252 -38.413700  -0.000790  -0.012069 -89.000100  -0.017747   0.007355 -96.586900  -0.002566   0.004914 -72.440300  -0.000386  -0.001733 -88.996300  -4.998450   0.086757 -89.729100   0.000325   0.008037 -67.296900   0.001425   0.000251 -88.985300  -9.998070   0.177265 -110.000000  -0.004425   0.000652 -80.000000  -0.003916   0.009279   2.889670   0.842373  11.211300   8.755380  -9.613090  41.934500  -9.235560 -22.791200 103.758000  70.588900 -38.619600  44.776200 -32.084200  34.257300  71.343900  43.156700  -0.000363  -0.000691  18.029600  -0.000712  -0.001845  49.641000  -2.255800  -1.917380  40.645400  -0.000753   0.003460  30.441400   0.000480  -0.005812  73.369900  -2.824930  -0.846531  73.390700   0.003560  -0.010180  55.043100  -0.001402   0.001710  89.000700  -5.001750  -0.093383 108.579000  -0.002222   0.001259  80.000000   0.003933   0.002114  88.984600  -9.994180  -0.176303 110.000000  -0.002739  -0.000520  80.000000  -0.003751   0.005501   1.000670  11.310900   3.329480  -0.345937   3.063310  14.619700  -5.073210  -4.073280   2.303550   0.000000   0.000000   0.000000   1.638200  11.336800  -6.580600  -0.118260   3.781550  -6.335200  -7.823950  -0.775809   3.289530   0.000000   0.000000   0.000000
 -1.424050  89.965400   0.499284   0.170438 -11.593300   1.897340   0.105419   7.858480  -3.046390   0.646210  15.699800  -6.196200   3.249090   2.190400  -0.124306   5.359460   4.399200   6.552810  -3.185220   4.696900   3.226050 -27.063900  -0.082708 -58.587100   9.740340 -20.425100 -118.006000 -17.028900  17.070600 -10.716400  47.059900  55.224700 -92.528800 -50.633000  -0.001471   0.001506 -25.734500  -0.001959   0.000681 -60.806600  -0.235757   0.122984 -49.749900  -0.002773  -0.003442 -37.312400  -0.000857  -0.004330 -89.000100  -0.179408   0.007612 -97.069800  -0.002599   0.004991 -72.802500  -0.000145  -0.001769 -88.996300  -4.998490   0.087118 -90.083700   0.000303   0.008137 -67.562800   0.001472   0.000244 -88.985300  -9.998030   0.177151 -110.000000  -0.004455   0.000658 -80.000000  -0.003881   0.009434   2.607090   1.248860  11.361100   9.269830  -9.539100  41.380500  -9.651820 -23.460000 104.109000  69.154800 -38.806000  43.096700 -32.052100  34.457300  71.359100  43.641600  -0.000410  -0.000711  18.496000  -0.000771  -0.001896  48.899700  -2.369180  -2.057940  40.043500  -0.000800   0.003266  29.962400   0.000448  -0.005499  73.672200  -3.001220  -0.884973  73.694900   0.003518  -0.008581  55.271200  -0.001457   0.001772  89.000700  -5.001570  -0.093294 108.555000  -0.002203   0.001233  80.000000   0.004030   0.002134  88.984600  -9.994140  -0.176309 110.000000  -0.002748  -0.000504  80.000000  -0.003694   0.005470   0.999298  11.203900   3.323880  -0.360134   3.097980  14.676800  -5.065440  -4.097490   2.398160  -0.000000   0.000000   0.000000   1.632380  11.229900  -6.611100  -0.132208   3.789610  -6.226800  -7.822080  -0.771571   3.363930  -0.000000   0.000000  -0.000000
 -1.419520  89.965100   0.521702   0.140249 -11.465200   1.782500   0.110257   7.687540  -3.084710   0.651409  15.357500  -6.269130   3.248360   2.269830  -0.128231   5.353680   4.558930   6.623220  -3.203330   5.036820   3.511090 -27.909600  -0.618731 -58.106000  10.089500 -19.900100 -118.243000 -17.033300  17.487700 -11.020500  47.129000  54.947300 -92.631100 -49.714200  -0.001514   0.001389 -24.647700  -0.002032   0.000601 -60.039600  -0.390646   0.214882 -49.124000  -0.002671  -0.002346 -36.843000  -0.000909  -0.001133 -89.000000  -0.361108   0.007794 -97.102800  -0.002630   0.005068 -72.827200   0.000117  -0.001804 -88.996200  -4.998530   0.087474 -90.079800   0.000280   0.008238 -67.559900   0.001519   0.000239 -88.985400  -9.997980   0.177038 -110.000000  -0.004488   0.000665 -80.000000  -0.003839   0.009592   2.364050   1.633260  11.528800   9.757380  -9.544910  40.723600 -10.179500 -23.829800 104.511000  68.109000 -38.277300  41.410600 -32.037800  33.965800  71.213600  43.638900  -0.000459  -0.000738  18.469400  -0.000826  -0.001952  48.946900  -2.359790  -2.048880  40.082000  -0.000855   0.003060  29.978200   0.000412  -0.005156  74.481900  -3.004690  -0.839256  74.504600   0.003465  -0.005266  55.878500  -0.001512   0.001833  89.000800  -5.001380  -0.093204 108.976000  -0.002189   0.001224  80.000000   0.004112   0.002153  88.984600  -9.994090  -0.176303 110.000000  -0.002774  -0.000490  80.000000  -0.003631   0.005443   0.986845  11.086100   3.294620  -0.355207   3.097110  14.731000  -5.058220  -4.118220   2.488740  -0.000000   0.000000   0.000000   1.607220  11.119600  -6.686650  -0.121398   3.745800  -6.113230  -7.813640  -0.743735   3.467230   0.000000   0.000000   0.000000
 -1.409310  89.962700   0.545031   0.109425 -11.327400   1.682340   0.111077   7.516530  -3.108730   0.645769  15.015600  -6.314880   3.248650   2.360210  -0.133897   5.362360   4.740080   6.748700  -3.210250   5.333890   3.835390 -28.327600  -0.949890 -57.723100  10.327300 -19.487600 -118.346000 -16.942500  17.619400 -11.427800  47.109200  54.536700 -92.609400 -49.110000  -0.001556   0.001270 -23.934000  -0.002104   0.000535 -59.653600  -0.462827   0.270615 -48.808800  -0.002583  -0.002015 -36.606600  -0.000957  -0.000074 -89.000000  -0.538027   0.007872 -97.107500  -0.002659   0.005144 -72.830700   0.000401  -0.001839 -88.996200  -4.998570   0.087826 -90.052600   0.000260   0.008340 -67.539500   0.001566   0.000235 -88.985400  -9.997930   0.176927 -110.000000  -0.004519   0.000670 -80.000000  -0.003796   0.009749   2.199680   1.975180  11.687600  10.085900  -9.507930  40.003200 -10.664700 -24.117900 104.951000  67.843200 -37.605800  40.339200 -32.027400  33.474700  71.077200  43.620100  -0.000511  -0.000764  18.329400  -0.000900  -0.002009  48.994000  -2.350410  -2.039810  40.120500  -0.000912   0.002830  29.994000   0.000375  -0.004791  75.248000  -3.008150  -0.793540  75.269100   0.003412  -0.002046  56.451800  -0.001542   0.001893  89.000900  -5.001200  -0.093113 109.398000  -0.002174   0.001220  80.000000   0.004195   0.002171  88.984600  -9.994050  -0.176297 110.000000  -0.002800  -0.000475  80.000000  -0.003566   0.005414   0.972698  10.971500   3.258250  -0.346171   3.095710  14.779700  -5.051680  -4.135030   2.574520   0.000000   0.000000   0.000000   1.564850  11.022700  -6.763300  -0.090018   3.657540  -6.043710  -7.801460  -0.701180   3.584630   0.000000   0.000000   0.000000
 -1.394500  89.955400   0.560737   0.082113 -11.215500   1.610540   0.112993   7.384230  -3.107960   0.640713  14.752100  -6.311950   3.259760   2.453430  -0.139694   5.384100   4.927240   6.876780  -3.203620   5.517250   4.007600 -27.926900  -0.908622 -57.475700  10.333000 -19.477100 -118.279000 -16.709500  17.324400 -11.861400  46.692000  54.277700 -92.097200 -49.260400  -0.001604   0.001147 -24.111700  -0.002164   0.000500 -59.189100  -0.555892   0.333402 -48.429200  -0.002501  -0.001462 -36.321900  -0.001000  -0.000009 -89.000000  -0.655475   0.007836 -97.045000  -0.002689   0.005221 -72.783800   0.000707  -0.001874 -88.996200  -4.998610   0.088175 -89.943800   0.000247   0.008443 -67.457900   0.001613   0.000233 -88.985400  -9.997880   0.176819 -110.000000  -0.004546   0.000675 -80.000000  -0.003758   0.009900   2.161960   2.241230  11.822100  10.032900  -9.299420  39.322700 -10.968300 -24.449800 105.354000  68.114700 -37.362100  40.216400 -32.189000  33.605300  71.299500  43.293800  -0.000568  -0.000780  17.959000  -0.001009  -0.002058  48.684100  -2.394090  -2.102990  39.868500  -0.000967   0.002563  29.745400   0.000333  -0.004411  75.478700  -3.085430  -0.805343  75.499200   0.003375  -0.001034  56.624400  -0.000556   0.001954  89.000900  -5.001020  -0.093017 109.306000  -0.002152   0.001217  80.000000   0.004294   0.002192  88.984600  -9.994000  -0.176299 110.000000  -0.002816  -0.000456  80.000000  -0.003499   0.005370   0.961329  10.879600   3.243560  -0.335814   3.076600  14.804900  -5.047130  -4.147290   2.637500   0.000000   0.000000   0.000000   1.518890  10.969600  -6.798680  -0.045164   3.548060  -6.044640  -7.791420  -0.660713   3.702350  -0.000000   0.000000  -0.000000
